<svg width="248" height="52" viewBox="0 0 248 52" fill="none" xmlns="http://www.w3.org/2000/svg">
<g clip-path="url(#clip0_3_652)">
<mask id="mask0_3_652" style="mask-type:luminance" maskUnits="userSpaceOnUse" x="0" y="0" width="248" height="52">
<path d="M248 0H0V52H248V0Z" fill="white"/>
</mask>
<g mask="url(#mask0_3_652)">
<path d="M218.956 19.1522V14.2279C218.956 13.9973 218.766 13.8097 218.533 13.8097H214.017C213.784 13.8097 213.594 13.6222 213.594 13.3916V9.12624C213.594 8.89561 213.784 8.70807 214.017 8.70807H218.533C218.766 8.70807 218.956 8.52053 218.956 8.2899V3.6064C218.956 3.37577 219.146 3.18823 219.379 3.18823H223.547C223.78 3.18823 223.97 3.37577 223.97 3.6064V8.29243C223.97 8.52306 224.159 8.7106 224.392 8.7106H229.391C229.624 8.7106 229.813 8.89815 229.813 9.12877V13.3941C229.813 13.6247 229.624 13.8123 229.391 13.8123H224.392C224.159 13.8123 223.97 13.9998 223.97 14.2304V19.1218M114.649 33.2103C116.509 33.2103 118.131 32.9087 119.512 32.3055C120.892 31.7023 121.961 30.8685 122.716 29.8041C123.472 28.7396 123.849 27.5333 123.849 26.1825C123.821 24.6593 123.398 23.4378 122.586 22.5153C121.771 21.5953 120.805 20.8983 119.686 20.4244C118.566 19.9505 117.137 19.4816 115.392 19.0229C114.083 18.6504 113.094 18.3412 112.428 18.0953C111.759 17.852 111.191 17.5124 110.727 17.0816C110.261 16.6508 110.03 16.1185 110.03 15.4849C110.03 14.6816 110.378 14.0328 111.075 13.5436C111.772 13.0545 112.776 12.8112 114.083 12.8112C115.39 12.8112 116.481 13.128 117.265 13.7616C118.049 14.3952 118.484 15.2416 118.574 16.3061H123.544C123.429 13.9491 122.535 12.0864 120.862 10.7204C119.191 9.35433 116.988 8.67259 114.257 8.67259C112.425 8.67259 110.806 8.97418 109.395 9.57735C107.986 10.1805 106.902 11.0093 106.146 12.0585C105.391 13.1077 105.014 14.2659 105.014 15.5306C105.014 17.0841 105.429 18.3336 106.256 19.284C107.084 20.2318 108.065 20.9364 109.2 21.3976C110.335 21.8563 111.8 22.3328 113.604 22.8194C115.464 23.3364 116.824 23.8129 117.68 24.2437C118.538 24.6745 118.966 25.336 118.966 26.2281C118.966 27.0619 118.579 27.7462 117.81 28.2759C117.039 28.8081 115.958 29.0742 114.562 29.0742C113.166 29.0742 112.113 28.7371 111.226 28.0604C110.34 27.3863 109.853 26.5449 109.766 25.5362H104.622C104.681 26.9732 105.145 28.2759 106.016 29.4391C106.887 30.6049 108.073 31.5249 109.569 32.1991C111.065 32.8732 112.758 33.2128 114.647 33.2128L114.649 33.2103ZM156.185 8.67005C154.412 8.67005 152.755 9.09329 151.215 9.9423C149.675 10.7913 148.54 11.9343 147.815 13.3713C147.001 11.8481 145.837 10.6823 144.328 9.87641C142.817 9.07302 141.101 8.67005 139.184 8.67005C137.76 8.67005 136.423 8.94376 135.172 9.48865C133.922 10.0361 132.89 10.7964 132.078 11.7746V9.05781H127.108V32.8225H132.078V19.5374C132.078 17.4111 132.623 15.7789 133.712 14.6435C134.803 13.5081 136.277 12.9405 138.136 12.9405C139.996 12.9405 141.464 13.5081 142.54 14.6435C143.616 15.7789 144.154 17.4111 144.154 19.5374V32.8225H149.081V19.5374C149.081 17.4111 149.626 15.7789 150.715 14.6435C151.804 13.5081 153.28 12.9405 155.14 12.9405C157 12.9405 158.467 13.5081 159.543 14.6435C160.619 15.7789 161.157 17.4111 161.157 19.5374V32.8225H166.084V18.805C166.084 16.6482 165.654 14.8083 164.798 13.2851C163.94 11.762 162.764 10.6114 161.265 9.83332C159.769 9.05781 158.076 8.67005 156.185 8.67005ZM169.794 20.8324C169.794 23.2198 170.296 25.3537 171.297 27.2368C172.299 29.1198 173.659 30.5872 175.373 31.6364C177.087 32.6856 178.978 33.2103 181.04 33.2103C182.9 33.2103 184.558 32.8352 186.01 32.0901C187.463 31.3424 188.611 30.4073 189.453 29.2871V32.825H194.467V9.05781H189.453V12.5071C188.611 11.4148 187.483 10.5024 186.074 9.76743C184.663 9.035 183.015 8.66752 181.125 8.66752C179.032 8.66752 177.121 9.17946 175.391 10.1983C173.662 11.2196 172.297 12.649 171.292 14.4889C170.288 16.3289 169.788 18.4425 169.788 20.8299L169.794 20.8324ZM189.456 20.9186C189.456 22.5583 189.115 23.9877 188.431 25.2093C187.747 26.4308 186.856 27.3584 185.751 27.992C184.647 28.6231 183.453 28.9399 182.175 28.9399C180.897 28.9399 179.741 28.6155 178.622 27.9692C177.502 27.3229 176.6 26.3802 175.919 25.1434C175.235 23.9066 174.894 22.4696 174.894 20.8299C174.894 19.1902 175.235 17.776 175.919 16.5823C176.6 15.3886 177.495 14.4839 178.601 13.8655C179.705 13.2471 180.897 12.9379 182.178 12.9379C183.459 12.9379 184.647 13.2547 185.754 13.8883C186.858 14.5194 187.752 15.4393 188.434 16.6482C189.115 17.8546 189.459 19.2789 189.459 20.9186H189.456ZM203.764 12.5071V9.05781H198.794V32.8225H203.764V20.3154C203.764 17.9002 204.266 16.2047 205.268 15.2264C206.272 14.2482 207.745 13.759 209.692 13.759H210.958V8.67005C209.3 8.67005 207.868 9.00712 206.664 9.6838C205.457 10.3605 204.492 11.3007 203.764 12.5096V12.5071ZM227.746 46.7285C227.297 45.9708 227.075 45.0812 227.075 44.0573C227.075 43.0334 227.3 42.1566 227.753 41.3988C227.782 41.3532 227.81 41.3075 227.843 41.2619H226.767C225.75 41.2619 225.03 40.9933 224.607 40.4509C224.185 39.9111 223.975 39.019 223.975 37.7746V21.3672H218.961V37.7746C218.961 41.0212 219.558 43.368 220.749 44.8075C221.941 46.2495 223.654 46.9718 225.894 46.9718H227.897C227.846 46.8933 227.794 46.8122 227.743 46.7285H227.746ZM189.894 36.3529H187.77V46.8248H193.381V45.1598H189.891V36.3529H189.894ZM195.809 37.5237C196.183 37.5237 196.493 37.4072 196.742 37.1715C196.99 36.9358 197.113 36.6443 197.113 36.2946C197.113 35.9448 196.99 35.6508 196.742 35.4177C196.493 35.182 196.183 35.0654 195.809 35.0654C195.435 35.0654 195.125 35.182 194.877 35.4177C194.628 35.6534 194.505 35.9448 194.505 36.2946C194.505 36.6443 194.628 36.9383 194.877 37.1715C195.125 37.4072 195.435 37.5237 195.809 37.5237ZM194.733 38.5147V46.8274H196.857V38.5147H194.733ZM200.329 38.5147H198.054L201.148 46.8274H203.726L206.836 38.5147H204.576L202.452 44.8911L200.329 38.5147ZM215.843 42.4911C215.843 41.6801 215.669 40.9629 215.321 40.3369C214.972 39.7109 214.48 39.2294 213.85 38.8898C213.217 38.5502 212.503 38.3804 211.703 38.3804C210.904 38.3804 210.141 38.5552 209.505 38.905C208.867 39.2547 208.373 39.754 208.019 40.4053C207.666 41.0566 207.489 41.8119 207.489 42.671C207.489 43.5302 207.668 44.2702 208.027 44.9215C208.386 45.5729 208.885 46.0747 209.528 46.4295C210.171 46.7843 210.896 46.9617 211.706 46.9617C212.708 46.9617 213.55 46.7032 214.24 46.1887C214.926 45.6742 215.392 45.0153 215.636 44.217H213.345C213.012 44.8861 212.451 45.2231 211.662 45.2231C211.117 45.2231 210.656 45.0533 210.281 44.7137C209.907 44.3741 209.695 43.9027 209.644 43.3046H215.787C215.828 43.0639 215.848 42.7952 215.848 42.4936L215.843 42.4911ZM209.656 41.8904C209.738 41.3303 209.956 40.8919 210.315 40.5776C210.673 40.2634 211.117 40.1063 211.642 40.1063C212.198 40.1063 212.667 40.2685 213.051 40.5928C213.435 40.9172 213.632 41.3506 213.643 41.8904H209.654H209.656ZM245.005 36.9079C244.549 36.4466 243.801 36.4365 243.33 36.8876C242.863 37.3387 242.853 38.0788 243.309 38.5451C246.458 41.7409 246.394 46.8781 243.161 49.9928C242.927 50.2183 242.807 50.5149 242.802 50.8165C242.797 51.1155 242.912 51.4171 243.14 51.6477C243.596 52.109 244.344 52.1191 244.816 51.668C248.984 47.651 249.071 41.0262 245.005 36.9079ZM241.764 40.0328C241.308 39.5715 240.56 39.5614 240.089 40.0125C239.623 40.4636 239.612 41.2036 240.068 41.67C241.477 43.0968 241.449 45.3929 240.002 46.7843C239.769 47.0099 239.648 47.3064 239.643 47.608C239.638 47.907 239.753 48.2086 239.981 48.4392C240.437 48.9005 241.185 48.9106 241.654 48.4595C244.039 46.1684 244.088 42.3872 241.767 40.0328H241.764ZM233.933 49.0095C234.922 49.0095 235.805 48.8042 236.592 48.3961C237.378 47.9881 237.998 47.4001 238.452 46.6398C238.903 45.8745 239.131 44.9849 239.131 43.9762C239.131 42.9675 238.905 42.0805 238.452 41.3253C238.001 40.5726 237.381 39.9897 236.6 39.5816C235.818 39.1736 234.934 38.9683 233.946 38.9683C232.957 38.9683 232.073 39.1736 231.291 39.5816C230.51 39.9897 229.89 40.5726 229.439 41.3253C228.988 42.078 228.76 42.9675 228.76 43.9762C228.76 44.9849 228.986 45.8922 229.432 46.6449C229.877 47.3976 230.49 47.9805 231.271 48.3885C232.052 48.7966 232.936 49.0019 233.93 49.0069L233.933 49.0095ZM233.925 46.0341C233.441 46.0341 233.046 45.8618 232.744 45.5095C232.442 45.1648 232.285 44.6529 232.285 43.9762C232.285 43.2995 232.447 42.8079 232.762 42.4556C233.077 42.1033 233.472 41.931 233.943 41.931C234.414 41.931 234.809 42.1033 235.132 42.4556C235.454 42.8079 235.616 43.3122 235.616 43.9762C235.616 44.6402 235.454 45.1446 235.132 45.5019C234.809 45.8592 234.409 46.0392 233.925 46.0316V46.0341Z" fill="white"/>
<path d="M33.7015 9.89922C35.1541 10.6621 36.3018 11.8051 37.1447 13.3282C37.9875 14.8514 38.4102 16.7065 38.4102 18.8911V32.8225H34.4854V19.4512C34.4854 17.0943 33.8962 15.2898 32.7203 14.0378C31.5444 12.7859 29.9509 12.1624 27.945 12.1624C25.939 12.1624 24.2379 12.8163 23.0185 14.124C21.799 15.4317 21.1867 17.3224 21.1867 19.7959V32.8225H17.2619V19.4512C17.2619 17.0943 16.6727 15.2898 15.4968 14.0378C14.3209 12.7859 12.7274 12.1624 10.724 12.1624C8.72063 12.1624 7.01698 12.8163 5.79753 14.124C4.57551 15.4317 3.96579 17.3224 3.96579 19.7959V32.8225H0V9.18707H3.96835V12.5932C4.75228 11.3565 5.80521 10.4086 7.12971 9.74716C8.45163 9.08569 9.91191 8.75623 11.5105 8.75623C13.5165 8.75623 15.2893 9.20227 16.829 10.0944C18.3687 10.9865 19.5164 12.2942 20.2721 14.0201C20.9408 12.3525 22.045 11.06 23.5846 10.1375C25.1243 9.21748 26.8382 8.75623 28.7289 8.75623C30.6196 8.75623 32.2464 9.13638 33.6989 9.89922H33.7015Z" fill="white"/>
<path d="M65.0051 22.4722H45.9088C46.0549 24.8013 46.8593 26.6209 48.3273 27.9287C49.7952 29.2364 51.5757 29.8903 53.6688 29.8903C55.3827 29.8903 56.8148 29.4949 57.9625 28.7042C59.1102 27.9135 59.9172 26.8566 60.3809 25.5337H64.6541C64.0136 27.8045 62.7353 29.652 60.8164 31.0763C58.8976 32.5007 56.515 33.2103 53.6662 33.2103C51.3989 33.2103 49.3725 32.7085 47.5843 31.6998C45.7961 30.6937 44.3948 29.2617 43.3777 27.4091C42.3606 25.554 41.8508 23.4048 41.8508 20.9617C41.8508 18.5186 42.3453 16.3745 43.3342 14.5346C44.323 12.6946 45.709 11.2779 47.4972 10.287C49.2854 9.29605 51.34 8.79932 53.6662 8.79932C55.9924 8.79932 57.9394 9.28845 59.6841 10.2667C61.4287 11.245 62.7711 12.5882 63.7165 14.2989C64.6618 16.0096 65.1332 17.9433 65.1332 20.1C65.1332 20.8477 65.0896 21.6384 65.0025 22.4722H65.0051ZM60.035 15.4216C59.3664 14.3445 58.4569 13.5234 57.3092 12.9633C56.1615 12.4032 54.8882 12.1219 53.4946 12.1219C51.4886 12.1219 49.7824 12.7555 48.3708 14.0201C46.9618 15.2847 46.1548 17.0385 45.9498 19.2814H61.0342C61.0342 17.7862 60.6986 16.4987 60.0325 15.4216H60.035Z" fill="white"/>
<path d="M68.7992 14.5574C69.7881 12.7326 71.1459 11.3159 72.8752 10.3098C74.6045 9.30366 76.5438 8.79932 78.6958 8.79932C80.5557 8.79932 82.285 9.22256 83.8836 10.0716C85.4822 10.9206 86.7017 12.0332 87.5471 13.4144V0.904785H91.559V32.8225H87.5471V28.3798C86.7631 29.7889 85.6 30.9471 84.0604 31.8519C82.5207 32.7566 80.7171 33.2103 78.6548 33.2103C76.5925 33.2103 74.607 32.6933 72.8778 31.6567C71.1485 30.6227 69.7881 29.1705 68.8018 27.3001C67.8129 25.4323 67.3185 23.3035 67.3185 20.9161C67.3185 18.5287 67.8129 16.3796 68.8018 14.5548L68.7992 14.5574ZM86.4557 16.3036C85.7281 14.9806 84.7469 13.9669 83.5121 13.2623C82.2773 12.5578 80.9169 12.2055 79.4362 12.2055C77.9554 12.2055 76.6027 12.5502 75.3807 13.2395C74.1587 13.9289 73.1852 14.9375 72.4602 16.2579C71.7326 17.5809 71.3714 19.1344 71.3714 20.9161C71.3714 22.6977 71.7352 24.302 72.4602 25.6401C73.1852 26.9783 74.1613 27.9971 75.3807 28.7016C76.6002 29.4062 77.9528 29.7585 79.4362 29.7585C80.9195 29.7585 82.2773 29.4062 83.5121 28.7016C84.7469 27.9971 85.7281 26.9757 86.4557 25.6401C87.1807 24.302 87.5445 22.7434 87.5445 20.9617C87.5445 19.1801 87.1807 17.6265 86.4557 16.3036Z" fill="white"/>
<path d="M96.8313 4.57199C96.3087 4.05498 96.0474 3.42139 96.0474 2.67375C96.0474 1.92611 96.3087 1.29252 96.8313 0.775514C97.3539 0.258505 97.9944 0 98.7501 0C99.5059 0 100.095 0.258505 100.602 0.775514C101.11 1.29252 101.366 1.92611 101.366 2.67375C101.366 3.42139 101.112 4.05498 100.602 4.57199C100.093 5.08899 99.4752 5.3475 98.7501 5.3475C98.0251 5.3475 97.3539 5.08899 96.8313 4.57199ZM100.669 9.18705V32.8225H96.7006V9.18705H100.669Z" fill="white"/>
</g>
</g>
<defs>
<clipPath id="clip0_3_652">
<rect width="248" height="52" fill="white"/>
</clipPath>
</defs>
</svg>
